<svg xmlns="http://www.w3.org/2000/svg" viewBox="0 0 468 310" width="468" height="310">
<defs>
<style>
.axis { stroke: #dddddd; stroke-width: 2; }
.tick { stroke: #dddddd; stroke-width: 2; }
.text-main { font-family: sans-serif; font-size: 14px; fill: #888888; text-anchor: middle; }
.text-legend { font-family: sans-serif; font-size: 14px; font-weight: bold; }
</style>
</defs>
<line x1="50" y1="155.0" x2="418" y2="155.0" class="axis" />
<line x1="50" y1="30" x2="50" y2="280" class="axis" />
<line x1="50" y1="150.0" x2="50" y2="160.0" class="tick" />
<text x="50" y="180.0" class="text-main">0</text>
<line x1="418" y1="150.0" x2="418" y2="160.0" class="tick" />
<text x="418" y="180.0" class="text-main">1</text>
<line x1="45" y1="30" x2="55" y2="30" class="tick" />
<text x="35" y="35" class="text-main">1</text>
<line x1="45" y1="280" x2="55" y2="280" class="tick" />
<text x="30" y="285" class="text-main">-1</text>
<path d="M 50.0,30.0 L 53.7,30.0 L 57.4,30.0 L 61.2,30.0 L 64.9,30.0 L 68.6,30.0 L 72.3,30.0 L 76.0,30.0 L 79.7,30.0 L 83.5,30.0 L 87.2,30.0 L 90.9,30.0 L 94.6,30.0 L 98.3,30.0 L 102.0,30.0 L 105.8,30.0 L 109.5,30.0 L 113.2,30.0 L 116.9,30.0 L 120.6,30.0 L 124.3,30.0 L 128.1,30.0 L 131.8,30.0 L 135.5,30.0 L 139.2,30.0 L 142.9,30.0 L 146.6,30.0 L 150.4,30.0 L 154.1,30.0 L 157.8,30.0 L 161.5,30.0 L 165.2,30.0 L 168.9,30.0 L 172.7,30.0 L 176.4,30.0 L 180.1,30.0 L 183.8,30.0 L 187.5,30.0 L 191.3,30.0 L 195.0,30.0 L 198.7,30.0 L 202.4,30.0 L 206.1,30.0 L 209.8,30.0 L 213.6,30.0 L 217.3,30.0 L 221.0,30.0 L 224.7,30.0 L 228.4,30.0 L 232.1,30.0 L 235.9,30.0 L 239.6,30.0 L 243.3,30.0 L 247.0,30.0 L 250.7,30.0 L 254.4,30.0 L 258.2,30.0 L 261.9,30.0 L 265.6,30.0 L 269.3,30.0 L 273.0,30.0 L 276.7,30.0 L 280.5,30.0 L 284.2,30.0 L 287.9,30.0 L 291.6,30.0 L 295.3,30.0 L 299.1,30.0 L 302.8,30.0 L 306.5,30.0 L 310.2,30.0 L 313.9,30.0 L 317.6,30.0 L 321.4,30.0 L 325.1,30.0 L 328.8,30.0 L 332.5,30.0 L 336.2,30.0 L 339.9,30.0 L 343.7,30.0 L 347.4,30.0 L 351.1,30.0 L 354.8,30.0 L 358.5,30.0 L 362.2,30.0 L 366.0,30.0 L 369.7,30.0 L 373.4,30.0 L 377.1,30.0 L 380.8,30.0 L 384.5,30.0 L 388.3,30.0 L 392.0,30.0 L 395.7,30.0 L 399.4,30.0 L 403.1,30.0 L 406.8,30.0 L 410.6,30.0 L 414.3,30.0 L 418.0,30.0" fill="none" stroke="#888888" stroke-width="3" />
<path d="M 50.0,30.0 L 53.7,30.1 L 57.4,30.3 L 61.2,30.6 L 64.9,31.0 L 68.6,31.6 L 72.3,32.3 L 76.0,33.1 L 79.7,34.0 L 83.5,35.1 L 87.2,36.2 L 90.9,37.5 L 94.6,39.0 L 98.3,40.5 L 102.0,42.1 L 105.8,43.9 L 109.5,45.8 L 113.2,47.8 L 116.9,49.8 L 120.6,52.0 L 124.3,54.3 L 128.1,56.7 L 131.8,59.2 L 135.5,61.8 L 139.2,64.5 L 142.9,67.3 L 146.6,70.2 L 150.4,73.1 L 154.1,76.2 L 157.8,79.3 L 161.5,82.5 L 165.2,85.8 L 168.9,89.1 L 172.7,92.5 L 176.4,96.0 L 180.1,99.5 L 183.8,103.1 L 187.5,106.7 L 191.3,110.4 L 195.0,114.1 L 198.7,117.9 L 202.4,121.7 L 206.1,125.5 L 209.8,129.4 L 213.6,133.3 L 217.3,137.2 L 221.0,141.1 L 224.7,145.1 L 228.4,149.1 L 232.1,153.0 L 235.9,157.0 L 239.6,160.9 L 243.3,164.9 L 247.0,168.9 L 250.7,172.8 L 254.4,176.7 L 258.2,180.6 L 261.9,184.5 L 265.6,188.3 L 269.3,192.1 L 273.0,195.9 L 276.7,199.6 L 280.5,203.3 L 284.2,206.9 L 287.9,210.5 L 291.6,214.0 L 295.3,217.5 L 299.1,220.9 L 302.8,224.2 L 306.5,227.5 L 310.2,230.7 L 313.9,233.8 L 317.6,236.9 L 321.4,239.8 L 325.1,242.7 L 328.8,245.5 L 332.5,248.2 L 336.2,250.8 L 339.9,253.3 L 343.7,255.7 L 347.4,258.0 L 351.1,260.2 L 354.8,262.2 L 358.5,264.2 L 362.2,266.1 L 366.0,267.9 L 369.7,269.5 L 373.4,271.0 L 377.1,272.5 L 380.8,273.8 L 384.5,274.9 L 388.3,276.0 L 392.0,276.9 L 395.7,277.7 L 399.4,278.4 L 403.1,279.0 L 406.8,279.4 L 410.6,279.7 L 414.3,279.9 L 418.0,280.0" fill="none" stroke="#4a90e2" stroke-width="3" />
<path d="M 50.0,30.0 L 53.7,30.3 L 57.4,31.0 L 61.2,32.3 L 64.9,34.0 L 68.6,36.2 L 72.3,39.0 L 76.0,42.1 L 79.7,45.8 L 83.5,49.8 L 87.2,54.3 L 90.9,59.2 L 94.6,64.5 L 98.3,70.2 L 102.0,76.2 L 105.8,82.5 L 109.5,89.1 L 113.2,96.0 L 116.9,103.1 L 120.6,110.4 L 124.3,117.9 L 128.1,125.5 L 131.8,133.3 L 135.5,141.1 L 139.2,149.1 L 142.9,157.0 L 146.6,164.9 L 150.4,172.8 L 154.1,180.6 L 157.8,188.3 L 161.5,195.9 L 165.2,203.3 L 168.9,210.5 L 172.7,217.5 L 176.4,224.2 L 180.1,230.7 L 183.8,236.9 L 187.5,242.7 L 191.3,248.2 L 195.0,253.3 L 198.7,258.0 L 202.4,262.2 L 206.1,266.1 L 209.8,269.5 L 213.6,272.5 L 217.3,274.9 L 221.0,276.9 L 224.7,278.4 L 228.4,279.4 L 232.1,279.9 L 235.9,279.9 L 239.6,279.4 L 243.3,278.4 L 247.0,276.9 L 250.7,274.9 L 254.4,272.5 L 258.2,269.5 L 261.9,266.1 L 265.6,262.2 L 269.3,258.0 L 273.0,253.3 L 276.7,248.2 L 280.5,242.7 L 284.2,236.9 L 287.9,230.7 L 291.6,224.2 L 295.3,217.5 L 299.1,210.5 L 302.8,203.3 L 306.5,195.9 L 310.2,188.3 L 313.9,180.6 L 317.6,172.8 L 321.4,164.9 L 325.1,157.0 L 328.8,149.1 L 332.5,141.1 L 336.2,133.3 L 339.9,125.5 L 343.7,117.9 L 347.4,110.4 L 351.1,103.1 L 354.8,96.0 L 358.5,89.1 L 362.2,82.5 L 366.0,76.2 L 369.7,70.2 L 373.4,64.5 L 377.1,59.2 L 380.8,54.3 L 384.5,49.8 L 388.3,45.8 L 392.0,42.1 L 395.7,39.0 L 399.4,36.2 L 403.1,34.0 L 406.8,32.3 L 410.6,31.0 L 414.3,30.3 L 418.0,30.0" fill="none" stroke="#e94e77" stroke-width="3" />
<path d="M 50.0,30.0 L 53.7,30.6 L 57.4,32.3 L 61.2,35.1 L 64.9,39.0 L 68.6,43.9 L 72.3,49.8 L 76.0,56.7 L 79.7,64.5 L 83.5,73.1 L 87.2,82.5 L 90.9,92.5 L 94.6,103.1 L 98.3,114.1 L 102.0,125.5 L 105.8,137.2 L 109.5,149.1 L 113.2,160.9 L 116.9,172.8 L 120.6,184.5 L 124.3,195.9 L 128.1,206.9 L 131.8,217.5 L 135.5,227.5 L 139.2,236.9 L 142.9,245.5 L 146.6,253.3 L 150.4,260.2 L 154.1,266.1 L 157.8,271.0 L 161.5,274.9 L 165.2,277.7 L 168.9,279.4 L 172.7,280.0 L 176.4,279.4 L 180.1,277.7 L 183.8,274.9 L 187.5,271.0 L 191.3,266.1 L 195.0,260.2 L 198.7,253.3 L 202.4,245.5 L 206.1,236.9 L 209.8,227.5 L 213.6,217.5 L 217.3,206.9 L 221.0,195.9 L 224.7,184.5 L 228.4,172.8 L 232.1,160.9 L 235.9,149.1 L 239.6,137.2 L 243.3,125.5 L 247.0,114.1 L 250.7,103.1 L 254.4,92.5 L 258.2,82.5 L 261.9,73.1 L 265.6,64.5 L 269.3,56.7 L 273.0,49.8 L 276.7,43.9 L 280.5,39.0 L 284.2,35.1 L 287.9,32.3 L 291.6,30.6 L 295.3,30.0 L 299.1,30.6 L 302.8,32.3 L 306.5,35.1 L 310.2,39.0 L 313.9,43.9 L 317.6,49.8 L 321.4,56.7 L 325.1,64.5 L 328.8,73.1 L 332.5,82.5 L 336.2,92.5 L 339.9,103.1 L 343.7,114.1 L 347.4,125.5 L 351.1,137.2 L 354.8,149.1 L 358.5,160.9 L 362.2,172.8 L 366.0,184.5 L 369.7,195.9 L 373.4,206.9 L 377.1,217.5 L 380.8,227.5 L 384.5,236.9 L 388.3,245.5 L 392.0,253.3 L 395.7,260.2 L 399.4,266.1 L 403.1,271.0 L 406.8,274.9 L 410.6,277.7 L 414.3,279.4 L 418.0,280.0" fill="none" stroke="#f5a623" stroke-width="3" />
<line x1="350" y1="195" x2="370" y2="195" stroke="#888888" stroke-width="3" />
<text x="380" y="200" class="text-legend" fill="#888888">c=0</text>
<line x1="350" y1="215" x2="370" y2="215" stroke="#4a90e2" stroke-width="3" />
<text x="380" y="220" class="text-legend" fill="#4a90e2">c=1</text>
<line x1="350" y1="235" x2="370" y2="235" stroke="#e94e77" stroke-width="3" />
<text x="380" y="240" class="text-legend" fill="#e94e77">c=2</text>
<line x1="350" y1="255" x2="370" y2="255" stroke="#f5a623" stroke-width="3" />
<text x="380" y="260" class="text-legend" fill="#f5a623">c=3</text>
</svg>