<svg xmlns="http://www.w3.org/2000/svg" viewBox="0 0 468 310" width="468" height="310">
<defs>
<style>
.axis { stroke: #dddddd; stroke-width: 2; }
.tick { stroke: #dddddd; stroke-width: 2; }
.text-main { font-family: sans-serif; font-size: 14px; fill: #888888; text-anchor: middle; }
.text-legend { font-family: sans-serif; font-size: 14px; font-weight: bold; }
</style>
</defs>
<line x1="50" y1="155.0" x2="418" y2="155.0" class="axis" />
<line x1="234.0" y1="30" x2="234.0" y2="280" class="axis" />
<line x1="50" y1="150.0" x2="50" y2="160.0" class="tick" />
<text x="50" y="180.0" class="text-main">-1</text>
<line x1="418" y1="150.0" x2="418" y2="160.0" class="tick" />
<text x="418" y="180.0" class="text-main">1</text>
<line x1="229.0" y1="30" x2="239.0" y2="30" class="tick" />
<text x="219.0" y="35" class="text-main">1</text>
<line x1="229.0" y1="280" x2="239.0" y2="280" class="tick" />
<text x="214.0" y="285" class="text-main">-1</text>
<path d="M 50.0,30.0 L 53.7,30.0 L 57.4,30.0 L 61.2,30.0 L 64.9,30.0 L 68.6,30.0 L 72.3,30.0 L 76.0,30.0 L 79.7,30.0 L 83.5,30.0 L 87.2,30.0 L 90.9,30.0 L 94.6,30.0 L 98.3,30.0 L 102.0,30.0 L 105.8,30.0 L 109.5,30.0 L 113.2,30.0 L 116.9,30.0 L 120.6,30.0 L 124.3,30.0 L 128.1,30.0 L 131.8,30.0 L 135.5,30.0 L 139.2,30.0 L 142.9,30.0 L 146.6,30.0 L 150.4,30.0 L 154.1,30.0 L 157.8,30.0 L 161.5,30.0 L 165.2,30.0 L 168.9,30.0 L 172.7,30.0 L 176.4,30.0 L 180.1,30.0 L 183.8,30.0 L 187.5,30.0 L 191.3,30.0 L 195.0,30.0 L 198.7,30.0 L 202.4,30.0 L 206.1,30.0 L 209.8,30.0 L 213.6,30.0 L 217.3,30.0 L 221.0,30.0 L 224.7,30.0 L 228.4,30.0 L 232.1,30.0 L 235.9,30.0 L 239.6,30.0 L 243.3,30.0 L 247.0,30.0 L 250.7,30.0 L 254.4,30.0 L 258.2,30.0 L 261.9,30.0 L 265.6,30.0 L 269.3,30.0 L 273.0,30.0 L 276.7,30.0 L 280.5,30.0 L 284.2,30.0 L 287.9,30.0 L 291.6,30.0 L 295.3,30.0 L 299.1,30.0 L 302.8,30.0 L 306.5,30.0 L 310.2,30.0 L 313.9,30.0 L 317.6,30.0 L 321.4,30.0 L 325.1,30.0 L 328.8,30.0 L 332.5,30.0 L 336.2,30.0 L 339.9,30.0 L 343.7,30.0 L 347.4,30.0 L 351.1,30.0 L 354.8,30.0 L 358.5,30.0 L 362.2,30.0 L 366.0,30.0 L 369.7,30.0 L 373.4,30.0 L 377.1,30.0 L 380.8,30.0 L 384.5,30.0 L 388.3,30.0 L 392.0,30.0 L 395.7,30.0 L 399.4,30.0 L 403.1,30.0 L 406.8,30.0 L 410.6,30.0 L 414.3,30.0 L 418.0,30.0" fill="none" stroke="#888888" stroke-width="3" />
<path d="M 50.0,280.0 L 53.7,277.5 L 57.4,274.9 L 61.2,272.4 L 64.9,269.9 L 68.6,267.4 L 72.3,264.8 L 76.0,262.3 L 79.7,259.8 L 83.5,257.3 L 87.2,254.7 L 90.9,252.2 L 94.6,249.7 L 98.3,247.2 L 102.0,244.6 L 105.8,242.1 L 109.5,239.6 L 113.2,237.1 L 116.9,234.5 L 120.6,232.0 L 124.3,229.5 L 128.1,227.0 L 131.8,224.4 L 135.5,221.9 L 139.2,219.4 L 142.9,216.9 L 146.6,214.3 L 150.4,211.8 L 154.1,209.3 L 157.8,206.8 L 161.5,204.2 L 165.2,201.7 L 168.9,199.2 L 172.7,196.7 L 176.4,194.1 L 180.1,191.6 L 183.8,189.1 L 187.5,186.6 L 191.3,184.0 L 195.0,181.5 L 198.7,179.0 L 202.4,176.5 L 206.1,173.9 L 209.8,171.4 L 213.6,168.9 L 217.3,166.4 L 221.0,163.8 L 224.7,161.3 L 228.4,158.8 L 232.1,156.3 L 235.9,153.7 L 239.6,151.2 L 243.3,148.7 L 247.0,146.2 L 250.7,143.6 L 254.4,141.1 L 258.2,138.6 L 261.9,136.1 L 265.6,133.5 L 269.3,131.0 L 273.0,128.5 L 276.7,126.0 L 280.5,123.4 L 284.2,120.9 L 287.9,118.4 L 291.6,115.9 L 295.3,113.3 L 299.1,110.8 L 302.8,108.3 L 306.5,105.8 L 310.2,103.2 L 313.9,100.7 L 317.6,98.2 L 321.4,95.7 L 325.1,93.1 L 328.8,90.6 L 332.5,88.1 L 336.2,85.6 L 339.9,83.0 L 343.7,80.5 L 347.4,78.0 L 351.1,75.5 L 354.8,72.9 L 358.5,70.4 L 362.2,67.9 L 366.0,65.4 L 369.7,62.8 L 373.4,60.3 L 377.1,57.8 L 380.8,55.3 L 384.5,52.7 L 388.3,50.2 L 392.0,47.7 L 395.7,45.2 L 399.4,42.6 L 403.1,40.1 L 406.8,37.6 L 410.6,35.1 L 414.3,32.5 L 418.0,30.0" fill="none" stroke="#4a90e2" stroke-width="3" />
<path d="M 50.0,30.0 L 53.7,35.0 L 57.4,39.9 L 61.2,44.7 L 64.9,49.4 L 68.6,54.0 L 72.3,58.5 L 76.0,62.9 L 79.7,67.1 L 83.5,71.3 L 87.2,75.4 L 90.9,79.4 L 94.6,83.3 L 98.3,87.0 L 102.0,90.7 L 105.8,94.3 L 109.5,97.7 L 113.2,101.1 L 116.9,104.4 L 120.6,107.5 L 124.3,110.6 L 128.1,113.6 L 131.8,116.4 L 135.5,119.2 L 139.2,121.8 L 142.9,124.4 L 146.6,126.8 L 150.4,129.2 L 154.1,131.4 L 157.8,133.6 L 161.5,135.6 L 165.2,137.5 L 168.9,139.4 L 172.7,141.1 L 176.4,142.7 L 180.1,144.3 L 183.8,145.7 L 187.5,147.0 L 191.3,148.3 L 195.0,149.4 L 198.7,150.4 L 202.4,151.3 L 206.1,152.1 L 209.8,152.8 L 213.6,153.5 L 217.3,154.0 L 221.0,154.4 L 224.7,154.7 L 228.4,154.9 L 232.1,155.0 L 235.9,155.0 L 239.6,154.9 L 243.3,154.7 L 247.0,154.4 L 250.7,154.0 L 254.4,153.5 L 258.2,152.8 L 261.9,152.1 L 265.6,151.3 L 269.3,150.4 L 273.0,149.4 L 276.7,148.3 L 280.5,147.0 L 284.2,145.7 L 287.9,144.3 L 291.6,142.7 L 295.3,141.1 L 299.1,139.4 L 302.8,137.5 L 306.5,135.6 L 310.2,133.6 L 313.9,131.4 L 317.6,129.2 L 321.4,126.8 L 325.1,124.4 L 328.8,121.8 L 332.5,119.2 L 336.2,116.4 L 339.9,113.6 L 343.7,110.6 L 347.4,107.5 L 351.1,104.4 L 354.8,101.1 L 358.5,97.7 L 362.2,94.3 L 366.0,90.7 L 369.7,87.0 L 373.4,83.3 L 377.1,79.4 L 380.8,75.4 L 384.5,71.3 L 388.3,67.1 L 392.0,62.9 L 395.7,58.5 L 399.4,54.0 L 403.1,49.4 L 406.8,44.7 L 410.6,39.9 L 414.3,35.0 L 418.0,30.0" fill="none" stroke="#e94e77" stroke-width="3" />
<path d="M 50.0,280.0 L 53.7,272.6 L 57.4,265.5 L 61.2,258.6 L 64.9,252.1 L 68.6,245.8 L 72.3,239.8 L 76.0,234.1 L 79.7,228.7 L 83.5,223.5 L 87.2,218.5 L 90.9,213.8 L 94.6,209.3 L 98.3,205.1 L 102.0,201.1 L 105.8,197.3 L 109.5,193.7 L 113.2,190.4 L 116.9,187.2 L 120.6,184.2 L 124.3,181.5 L 128.1,178.9 L 131.8,176.4 L 135.5,174.2 L 139.2,172.1 L 142.9,170.2 L 146.6,168.4 L 150.4,166.7 L 154.1,165.2 L 157.8,163.9 L 161.5,162.6 L 165.2,161.5 L 168.9,160.5 L 172.7,159.6 L 176.4,158.8 L 180.1,158.1 L 183.8,157.5 L 187.5,157.0 L 191.3,156.6 L 195.0,156.2 L 198.7,155.9 L 202.4,155.6 L 206.1,155.4 L 209.8,155.3 L 213.6,155.2 L 217.3,155.1 L 221.0,155.0 L 224.7,155.0 L 228.4,155.0 L 232.1,155.0 L 235.9,155.0 L 239.6,155.0 L 243.3,155.0 L 247.0,155.0 L 250.7,154.9 L 254.4,154.8 L 258.2,154.7 L 261.9,154.6 L 265.6,154.4 L 269.3,154.1 L 273.0,153.8 L 276.7,153.4 L 280.5,153.0 L 284.2,152.5 L 287.9,151.9 L 291.6,151.2 L 295.3,150.4 L 299.1,149.5 L 302.8,148.5 L 306.5,147.4 L 310.2,146.1 L 313.9,144.8 L 317.6,143.3 L 321.4,141.6 L 325.1,139.8 L 328.8,137.9 L 332.5,135.8 L 336.2,133.6 L 339.9,131.1 L 343.7,128.5 L 347.4,125.8 L 351.1,122.8 L 354.8,119.6 L 358.5,116.3 L 362.2,112.7 L 366.0,108.9 L 369.7,104.9 L 373.4,100.7 L 377.1,96.2 L 380.8,91.5 L 384.5,86.5 L 388.3,81.3 L 392.0,75.9 L 395.7,70.2 L 399.4,64.2 L 403.1,57.9 L 406.8,51.4 L 410.6,44.5 L 414.3,37.4 L 418.0,30.0" fill="none" stroke="#f5a623" stroke-width="3" />
<line x1="350" y1="195" x2="370" y2="195" stroke="#888888" stroke-width="3" />
<text x="380" y="200" class="text-legend" fill="#888888">i=0 (1)</text>
<line x1="350" y1="215" x2="370" y2="215" stroke="#4a90e2" stroke-width="3" />
<text x="380" y="220" class="text-legend" fill="#4a90e2">i=1 (s)</text>
<line x1="350" y1="235" x2="370" y2="235" stroke="#e94e77" stroke-width="3" />
<text x="380" y="240" class="text-legend" fill="#e94e77">i=2 (s²)</text>
<line x1="350" y1="255" x2="370" y2="255" stroke="#f5a623" stroke-width="3" />
<text x="380" y="260" class="text-legend" fill="#f5a623">i=3 (s³)</text>
</svg>