<svg xmlns="http://www.w3.org/2000/svg" viewBox="0 0 468 310" width="468" height="310">
<defs>
<style>
.axis { stroke: #dddddd; stroke-width: 2; }
.tick { stroke: #dddddd; stroke-width: 2; }
.text-main { font-family: sans-serif; font-size: 14px; fill: #888888; text-anchor: middle; }
.text-legend { font-family: sans-serif; font-size: 14px; font-weight: bold; }
</style>
</defs>
<line x1="50" y1="280" x2="418" y2="280" class="axis" />
<line x1="50" y1="30" x2="50" y2="280" class="axis" />
<line x1="50" y1="275" x2="50" y2="285" class="tick" />
<text x="50" y="305" class="text-main">0</text>
<line x1="418" y1="275" x2="418" y2="285" class="tick" />
<text x="418" y="305" class="text-main">1</text>
<line x1="45" y1="30" x2="55" y2="30" class="tick" />
<text x="35" y="35" class="text-main">1</text>
<line x1="45" y1="280" x2="55" y2="280" class="tick" />
<text x="35" y="285" class="text-main">0</text>
<path d="M 50.0,30.0 L 53.7,30.6 L 57.4,32.3 L 61.2,35.0 L 64.9,38.9 L 68.6,43.8 L 72.3,49.6 L 76.0,56.3 L 79.7,63.8 L 83.5,71.9 L 87.2,80.7 L 90.9,90.0 L 94.6,99.6 L 98.3,109.6 L 102.0,119.7 L 105.8,129.9 L 109.5,140.1 L 113.2,150.2 L 116.9,160.1 L 120.6,169.7 L 124.3,179.1 L 128.1,188.0 L 131.8,196.6 L 135.5,204.7 L 139.2,212.3 L 142.9,219.4 L 146.6,226.0 L 150.4,232.1 L 154.1,237.7 L 157.8,242.9 L 161.5,247.5 L 165.2,251.7 L 168.9,255.5 L 172.7,258.8 L 176.4,261.8 L 180.1,264.5 L 183.8,266.8 L 187.5,268.8 L 191.3,270.5 L 195.0,272.1 L 198.7,273.4 L 202.4,274.5 L 206.1,275.4 L 209.8,276.2 L 213.6,276.9 L 217.3,277.5 L 221.0,277.9 L 224.7,278.3 L 228.4,278.7 L 232.1,278.9 L 235.9,279.1 L 239.6,279.3 L 243.3,279.5 L 247.0,279.6 L 250.7,279.7 L 254.4,279.7 L 258.2,279.8 L 261.9,279.8 L 265.6,279.9 L 269.3,279.9 L 273.0,279.9 L 276.7,279.9 L 280.5,280.0 L 284.2,280.0 L 287.9,280.0 L 291.6,280.0 L 295.3,280.0 L 299.1,280.0 L 302.8,280.0 L 306.5,280.0 L 310.2,280.0 L 313.9,280.0 L 317.6,280.0 L 321.4,280.0 L 325.1,280.0 L 328.8,280.0 L 332.5,280.0 L 336.2,280.0 L 339.9,280.0 L 343.7,280.0 L 347.4,280.0 L 351.1,280.0 L 354.8,280.0 L 358.5,280.0 L 362.2,280.0 L 366.0,280.0 L 369.7,280.0 L 373.4,280.0 L 377.1,280.0 L 380.8,280.0 L 384.5,280.0 L 388.3,280.0 L 392.0,280.0 L 395.7,280.0 L 399.4,280.0 L 403.1,280.0 L 406.8,280.0 L 410.6,280.0 L 414.3,280.0 L 418.0,280.0" fill="none" stroke="#888888" stroke-width="3" />
<path d="M 50.0,217.7 L 53.7,210.4 L 57.4,202.7 L 61.2,194.5 L 64.9,185.8 L 68.6,176.8 L 72.3,167.3 L 76.0,157.6 L 79.7,147.7 L 83.5,137.5 L 87.2,127.3 L 90.9,117.2 L 94.6,107.1 L 98.3,97.2 L 102.0,87.6 L 105.8,78.5 L 109.5,69.8 L 113.2,61.8 L 116.9,54.5 L 120.6,48.1 L 124.3,42.5 L 128.1,37.8 L 131.8,34.3 L 135.5,31.7 L 139.2,30.3 L 142.9,30.0 L 146.6,30.9 L 150.4,32.9 L 154.1,35.9 L 157.8,40.0 L 161.5,45.1 L 165.2,51.2 L 168.9,58.1 L 172.7,65.8 L 176.4,74.1 L 180.1,83.0 L 183.8,92.4 L 187.5,102.1 L 191.3,112.1 L 195.0,122.2 L 198.7,132.5 L 202.4,142.6 L 206.1,152.7 L 209.8,162.5 L 213.6,172.1 L 217.3,181.3 L 221.0,190.2 L 224.7,198.6 L 228.4,206.6 L 232.1,214.1 L 235.9,221.1 L 239.6,227.6 L 243.3,233.6 L 247.0,239.1 L 250.7,244.1 L 254.4,248.6 L 258.2,252.7 L 261.9,256.4 L 265.6,259.6 L 269.3,262.5 L 273.0,265.1 L 276.7,267.3 L 280.5,269.2 L 284.2,270.9 L 287.9,272.4 L 291.6,273.7 L 295.3,274.7 L 299.1,275.6 L 302.8,276.4 L 306.5,277.0 L 310.2,277.6 L 313.9,278.0 L 317.6,278.4 L 321.4,278.7 L 325.1,279.0 L 328.8,279.2 L 332.5,279.4 L 336.2,279.5 L 339.9,279.6 L 343.7,279.7 L 347.4,279.8 L 351.1,279.8 L 354.8,279.9 L 358.5,279.9 L 362.2,279.9 L 366.0,279.9 L 369.7,279.9 L 373.4,280.0 L 377.1,280.0 L 380.8,280.0 L 384.5,280.0 L 388.3,280.0 L 392.0,280.0 L 395.7,280.0 L 399.4,280.0 L 403.1,280.0 L 406.8,280.0 L 410.6,280.0 L 414.3,280.0 L 418.0,280.0" fill="none" stroke="#4a90e2" stroke-width="3" />
<path d="M 50.0,279.0 L 53.7,278.8 L 57.4,278.5 L 61.2,278.1 L 64.9,277.7 L 68.6,277.2 L 72.3,276.6 L 76.0,275.8 L 79.7,275.0 L 83.5,273.9 L 87.2,272.7 L 90.9,271.3 L 94.6,269.7 L 98.3,267.8 L 102.0,265.6 L 105.8,263.2 L 109.5,260.4 L 113.2,257.2 L 116.9,253.6 L 120.6,249.7 L 124.3,245.2 L 128.1,240.4 L 131.8,235.0 L 135.5,229.1 L 139.2,222.8 L 142.9,215.9 L 146.6,208.5 L 150.4,200.7 L 154.1,192.3 L 157.8,183.6 L 161.5,174.4 L 165.2,164.9 L 168.9,155.2 L 172.7,145.1 L 176.4,135.0 L 180.1,124.8 L 183.8,114.6 L 187.5,104.6 L 191.3,94.8 L 195.0,85.3 L 198.7,76.3 L 202.4,67.8 L 206.1,59.9 L 209.8,52.8 L 213.6,46.6 L 217.3,41.2 L 221.0,36.8 L 224.7,33.5 L 228.4,31.3 L 232.1,30.1 L 235.9,30.1 L 239.6,31.3 L 243.3,33.5 L 247.0,36.8 L 250.7,41.2 L 254.4,46.6 L 258.2,52.8 L 261.9,59.9 L 265.6,67.8 L 269.3,76.3 L 273.0,85.3 L 276.7,94.8 L 280.5,104.6 L 284.2,114.6 L 287.9,124.8 L 291.6,135.0 L 295.3,145.1 L 299.1,155.2 L 302.8,164.9 L 306.5,174.4 L 310.2,183.6 L 313.9,192.3 L 317.6,200.7 L 321.4,208.5 L 325.1,215.9 L 328.8,222.8 L 332.5,229.1 L 336.2,235.0 L 339.9,240.4 L 343.7,245.2 L 347.4,249.7 L 351.1,253.6 L 354.8,257.2 L 358.5,260.4 L 362.2,263.2 L 366.0,265.6 L 369.7,267.8 L 373.4,269.7 L 377.1,271.3 L 380.8,272.7 L 384.5,273.9 L 388.3,275.0 L 392.0,275.8 L 395.7,276.6 L 399.4,277.2 L 403.1,277.7 L 406.8,278.1 L 410.6,278.5 L 414.3,278.8 L 418.0,279.0" fill="none" stroke="#e94e77" stroke-width="3" />
<path d="M 50.0,280.0 L 53.7,280.0 L 57.4,280.0 L 61.2,280.0 L 64.9,280.0 L 68.6,280.0 L 72.3,280.0 L 76.0,280.0 L 79.7,280.0 L 83.5,280.0 L 87.2,280.0 L 90.9,280.0 L 94.6,280.0 L 98.3,279.9 L 102.0,279.9 L 105.8,279.9 L 109.5,279.9 L 113.2,279.9 L 116.9,279.8 L 120.6,279.8 L 124.3,279.7 L 128.1,279.6 L 131.8,279.5 L 135.5,279.4 L 139.2,279.2 L 142.9,279.0 L 146.6,278.7 L 150.4,278.4 L 154.1,278.0 L 157.8,277.6 L 161.5,277.0 L 165.2,276.4 L 168.9,275.6 L 172.7,274.7 L 176.4,273.7 L 180.1,272.4 L 183.8,270.9 L 187.5,269.2 L 191.3,267.3 L 195.0,265.1 L 198.7,262.5 L 202.4,259.6 L 206.1,256.4 L 209.8,252.7 L 213.6,248.6 L 217.3,244.1 L 221.0,239.1 L 224.7,233.6 L 228.4,227.6 L 232.1,221.1 L 235.9,214.1 L 239.6,206.6 L 243.3,198.6 L 247.0,190.2 L 250.7,181.3 L 254.4,172.1 L 258.2,162.5 L 261.9,152.7 L 265.6,142.6 L 269.3,132.5 L 273.0,122.2 L 276.7,112.1 L 280.5,102.1 L 284.2,92.4 L 287.9,83.0 L 291.6,74.1 L 295.3,65.8 L 299.1,58.1 L 302.8,51.2 L 306.5,45.1 L 310.2,40.0 L 313.9,35.9 L 317.6,32.9 L 321.4,30.9 L 325.1,30.0 L 328.8,30.3 L 332.5,31.7 L 336.2,34.3 L 339.9,37.8 L 343.7,42.5 L 347.4,48.1 L 351.1,54.5 L 354.8,61.8 L 358.5,69.8 L 362.2,78.5 L 366.0,87.6 L 369.7,97.2 L 373.4,107.1 L 377.1,117.2 L 380.8,127.3 L 384.5,137.5 L 388.3,147.7 L 392.0,157.6 L 395.7,167.3 L 399.4,176.8 L 403.1,185.8 L 406.8,194.5 L 410.6,202.7 L 414.3,210.4 L 418.0,217.7" fill="none" stroke="#f5a623" stroke-width="3" />
<path d="M 50.0,280.0 L 53.7,280.0 L 57.4,280.0 L 61.2,280.0 L 64.9,280.0 L 68.6,280.0 L 72.3,280.0 L 76.0,280.0 L 79.7,280.0 L 83.5,280.0 L 87.2,280.0 L 90.9,280.0 L 94.6,280.0 L 98.3,280.0 L 102.0,280.0 L 105.8,280.0 L 109.5,280.0 L 113.2,280.0 L 116.9,280.0 L 120.6,280.0 L 124.3,280.0 L 128.1,280.0 L 131.8,280.0 L 135.5,280.0 L 139.2,280.0 L 142.9,280.0 L 146.6,280.0 L 150.4,280.0 L 154.1,280.0 L 157.8,280.0 L 161.5,280.0 L 165.2,280.0 L 168.9,280.0 L 172.7,280.0 L 176.4,280.0 L 180.1,280.0 L 183.8,280.0 L 187.5,280.0 L 191.3,279.9 L 195.0,279.9 L 198.7,279.9 L 202.4,279.9 L 206.1,279.8 L 209.8,279.8 L 213.6,279.7 L 217.3,279.7 L 221.0,279.6 L 224.7,279.5 L 228.4,279.3 L 232.1,279.1 L 235.9,278.9 L 239.6,278.7 L 243.3,278.3 L 247.0,277.9 L 250.7,277.5 L 254.4,276.9 L 258.2,276.2 L 261.9,275.4 L 265.6,274.5 L 269.3,273.4 L 273.0,272.1 L 276.7,270.5 L 280.5,268.8 L 284.2,266.8 L 287.9,264.5 L 291.6,261.8 L 295.3,258.8 L 299.1,255.5 L 302.8,251.7 L 306.5,247.5 L 310.2,242.9 L 313.9,237.7 L 317.6,232.1 L 321.4,226.0 L 325.1,219.4 L 328.8,212.3 L 332.5,204.7 L 336.2,196.6 L 339.9,188.0 L 343.7,179.1 L 347.4,169.7 L 351.1,160.1 L 354.8,150.2 L 358.5,140.1 L 362.2,129.9 L 366.0,119.7 L 369.7,109.6 L 373.4,99.6 L 377.1,90.0 L 380.8,80.7 L 384.5,71.9 L 388.3,63.8 L 392.0,56.3 L 395.7,49.6 L 399.4,43.8 L 403.1,38.9 L 406.8,35.0 L 410.6,32.3 L 414.3,30.6 L 418.0,30.0" fill="none" stroke="#9b59b6" stroke-width="3" />
<line x1="350" y1="95" x2="370" y2="95" stroke="#888888" stroke-width="3" />
<text x="385" y="100" class="text-legend" fill="#888888">c=0.0</text>
<line x1="350" y1="115" x2="370" y2="115" stroke="#4a90e2" stroke-width="3" />
<text x="385" y="120" class="text-legend" fill="#4a90e2">c=0.25</text>
<line x1="350" y1="135" x2="370" y2="135" stroke="#e94e77" stroke-width="3" />
<text x="385" y="140" class="text-legend" fill="#e94e77">c=0.5</text>
<line x1="350" y1="155" x2="370" y2="155" stroke="#f5a623" stroke-width="3" />
<text x="385" y="160" class="text-legend" fill="#f5a623">c=0.75</text>
<line x1="350" y1="175" x2="370" y2="175" stroke="#9b59b6" stroke-width="3" />
<text x="385" y="180" class="text-legend" fill="#9b59b6">c=1.0</text>
</svg>